<svg width="47" height="48" viewBox="0 0 47 48" fill="none" xmlns="http://www.w3.org/2000/svg">
<path d="M2 25.6107C2 24.5502 2 23.4698 2 22.4093C2.13385 21.669 2.24859 20.9087 2.38244 20.1683C4.23729 10.6842 9.61061 4.58156 18.4641 1.82036C19.7071 1.44019 20.9883 1.28012 22.2694 1C23.4168 1 24.5641 1 25.7114 1C25.96 1.08003 26.1895 1.18008 26.4381 1.20009C35.0621 2.08047 42.405 8.28317 44.9865 16.9469C45.4072 18.3275 45.6558 19.7682 46 21.1888C46 22.9896 46 24.7903 46 26.5911C45.8661 27.1914 45.7323 27.8117 45.5984 28.4119C43.5524 37.2758 38.4276 43.2384 30.1095 46.0396C28.6945 46.5198 27.203 46.6799 25.7497 47C24.7936 47 23.8375 47 22.8814 47C22.6137 46.92 22.3268 46.8199 22.0591 46.7999C13.0335 45.9195 5.57583 39.5368 3.01347 30.4528C2.53542 28.8921 2.32508 27.2314 2 25.6107ZM22.8814 25.2105C19.382 25.2105 15.9783 25.2105 12.5172 25.2105C12.6319 28.1118 13.2247 30.813 14.3529 33.3741C14.4676 33.6142 14.9457 33.8143 15.2708 33.8143C17.0874 33.8543 18.904 33.8343 20.7014 33.8343C21.4281 33.8343 22.1356 33.8343 22.8814 33.8343C22.8814 30.893 22.8814 28.1118 22.8814 25.2105ZM35.4828 22.8295C35.349 20.0483 34.7944 17.5072 33.8575 15.0461C33.6089 14.4058 33.3029 14.1257 32.6145 14.1457C30.4155 14.2057 28.2164 14.1657 26.0365 14.1657C25.7306 14.1657 25.4246 14.2057 25.1378 14.2258C25.1378 17.167 25.1378 19.9883 25.1378 22.8295C28.5798 22.8295 31.9644 22.8295 35.4828 22.8295ZM35.4637 25.2105C31.9261 25.2105 28.5224 25.2105 25.1186 25.2105C25.1186 28.1118 25.1186 30.933 25.1186 33.8343C27.834 33.8343 30.4537 33.8343 33.0926 33.8143C33.2838 33.8143 33.5515 33.5742 33.628 33.3741C34.7562 30.813 35.349 28.1118 35.4637 25.2105ZM12.651 22.8295C16.1121 22.8295 19.4585 22.8295 22.8431 22.8295C22.8431 19.9282 22.8431 17.087 22.8431 14.1857C20.2234 14.1857 17.661 14.1657 15.1369 14.2057C14.8883 14.2057 14.5441 14.4659 14.4485 14.6859C13.3585 17.2471 12.7084 19.8882 12.651 22.8295ZM43.801 22.8895C43.7245 19.8682 43.017 17.167 41.7358 14.6459C41.621 14.4258 41.3151 14.2057 41.1047 14.1857C39.4029 14.1457 37.6819 14.1657 36.133 14.1657C36.611 16.9669 37.0891 19.6881 37.5863 22.4093C37.6245 22.5894 37.8922 22.8495 38.0643 22.8495C39.9192 22.9095 41.7931 22.8895 43.801 22.8895ZM36.1712 33.8343C37.6819 33.8343 39.3646 33.8543 41.0282 33.8143C41.2386 33.8143 41.5445 33.6542 41.6402 33.4941C42.9596 30.913 43.7436 28.1918 43.7818 25.1305C41.7931 25.1305 39.9 25.1105 38.007 25.1505C37.854 25.1505 37.5863 25.4306 37.5671 25.6307C37.0891 28.3319 36.6302 31.0331 36.1712 33.8343ZM12.0582 33.8343C12.0391 33.6342 12.0582 33.5341 12.0391 33.4341C11.5037 30.853 10.9874 28.2518 10.4329 25.6707C10.3946 25.4706 10.1651 25.1505 10.0313 25.1505C8.09996 25.1105 6.18774 25.1305 4.19904 25.1305C4.40939 28.1118 5.07866 30.813 6.30248 33.3741C6.39809 33.5742 6.64667 33.8143 6.83789 33.8143C8.55889 33.8543 10.299 33.8343 12.0582 33.8343ZM12.0009 14.1857C10.2799 14.1857 8.53977 14.1657 6.79965 14.2057C6.62755 14.2057 6.39809 14.4058 6.3216 14.5859C5.07866 17.167 4.35202 19.8882 4.19904 22.8895C6.16862 22.8895 8.04259 22.9095 9.91656 22.8495C10.1078 22.8495 10.3946 22.4093 10.4329 22.1492C10.5858 21.2288 10.605 20.2884 10.7771 19.388C11.1404 17.6873 11.5802 15.9865 12.0009 14.1857ZM22.7284 43.8386C22.824 43.6986 22.8814 43.6585 22.8814 43.5985C22.9005 41.2775 22.9196 38.9565 22.8814 36.6155C22.8814 36.4154 22.4224 36.0352 22.1547 36.0352C20.6632 35.9752 19.1717 36.0152 17.6801 36.0152C17.0682 36.0152 16.4563 36.0152 15.6532 36.0152C17.5272 39.3767 19.8027 41.9178 22.7284 43.8386ZM25.1186 4.08134C25.1186 6.82253 25.1186 9.34363 25.1186 11.9047C27.4898 11.9047 29.8036 11.9047 32.2703 11.9047C30.4537 8.66333 28.1208 6.18225 25.1186 4.08134ZM22.9196 4.04132C19.8983 6.24228 17.5463 8.72336 15.7297 11.8847C15.9974 11.9648 16.0548 11.9848 16.1121 11.9848C17.6419 11.9848 19.1717 12.0048 20.7014 12.0048C22.9196 12.0048 22.9196 12.0048 22.9196 9.62375C22.9196 7.84298 22.9196 6.0622 22.9196 4.04132ZM25.0613 43.9787C28.0826 41.7777 30.4346 39.3167 32.3086 36.0352C29.8992 36.0352 27.7001 36.0152 25.5202 36.0552C25.3672 36.0552 25.0804 36.4354 25.0804 36.6355C25.0422 38.9965 25.0613 41.3575 25.0613 43.9787ZM40.1486 36.0152C38.4276 36.0152 37.0126 36.0552 35.5784 35.9952C34.9474 35.9752 34.6032 36.2153 34.3164 36.7755C32.997 39.3167 31.2951 41.5376 29.2108 43.4385C29.0578 43.5785 28.9239 43.7586 28.7901 43.9187C33.4559 42.8382 37.1465 40.2571 40.1486 36.0152ZM28.7518 3.90126C29.9757 5.28186 31.1039 6.36233 32.0409 7.60287C32.997 8.84341 33.7618 10.224 34.6223 11.5446C34.7371 11.7247 34.9283 11.9648 35.1004 11.9648C36.7258 12.0048 38.3703 11.9848 40.2634 11.9848C37.2229 7.80296 33.5706 5.18182 28.7518 3.90126ZM8.02347 11.7247C8.06171 11.8247 8.09996 11.9047 8.1382 12.0048C9.53412 12.0048 10.93 11.9648 12.3259 12.0248C12.9952 12.0448 13.3585 11.8047 13.6645 11.2044C14.9457 8.72336 16.6093 6.54241 18.6554 4.6816C18.8466 4.50152 19.1143 4.42149 19.3438 4.30144C19.229 4.18138 19.1334 4.06133 19.0187 3.96129C14.525 5.22184 10.8727 7.84298 8.02347 11.7247ZM8.02347 36.0152C10.0122 39.7769 16.7432 44.1187 19.382 43.9187C16.9153 41.7577 14.9266 39.2966 13.4159 36.4154C13.3203 36.2353 13.0143 36.0552 12.8231 36.0552C11.2551 36.0152 9.70622 36.0152 8.02347 36.0152Z" fill="#FF5000"/>
</svg>
